<?xml version="1.0" encoding="UTF-8"?>
<svg width="176px" height="48px" viewBox="0 0 176 48" version="1.1" xmlns="http://www.w3.org/2000/svg" xmlns:xlink="http://www.w3.org/1999/xlink">
    <!-- Generator: Sketch 46.2 (44496) - http://www.bohemiancoding.com/sketch -->
    <title>marco_logo</title>
    <desc>Created with Sketch.</desc>
    <defs></defs>
    <g id="Symbols" stroke="none" stroke-width="1" fill="none" fill-rule="evenodd">
        <g id="components/TopNav" transform="translate(-48.000000, -24.000000)" fill-rule="nonzero">
            <g id="TopNav">
                <g id="marco_logo" transform="translate(48.000000, 24.000000)">
                    <path d="M0.2,29.1 L3.6,29.1 L3.6,11.8 C3.6,9.5 4.3,7.5 5.7,5.9 C7.1,4.3 8.8,3.5 10.9,3.5 C12.9,3.5 14.4,4.1 15.6,5.3 C16.8,6.5 17.4,8.1 17.4,10.2 L17.4,29.1 L20.8,29.1 L20.8,11.2 C20.8,9 21.5,7.2 22.8,5.7 C24.1,4.2 25.9,3.5 28,3.5 C30.1,3.5 31.7,4.1 32.9,5.3 C34.1,6.5 34.6,8.3 34.6,10.6 L34.6,29.1 L38,29.1 L38,9.8 C38,6.8 37.2,4.5 35.7,2.9 C34.1,1.3 31.9,0.4 29.1,0.4 C27.1,0.4 25.3,0.9 23.7,1.9 C22.1,2.9 21,4.3 20.3,6 L20,6 C19.4,4.3 18.4,3 17.1,2 C15.8,1 14.1,0.5 12.1,0.5 C10.1,0.5 8.5,1 7,2 C5.6,3 4.5,4.3 3.9,6.1 L3.6,6.1 L3.6,1 L0.3,1 L0.3,29.1 L0.2,29.1 Z M55,26.5 C57.5,26.5 59.6,25.7 61.3,24.2 C63,22.7 63.9,20.8 63.9,18.6 L63.9,15.3 L55.6,15.9 C50.9,16.2 48.5,18 48.5,21.2 C48.5,22.8 49.1,24.1 50.3,25.1 C51.6,26.1 53.1,26.5 55,26.5 Z M54.4,29.6 C51.6,29.6 49.4,28.9 47.6,27.4 C45.8,25.9 44.9,23.9 44.9,21.4 C44.9,16.3 48.3,13.6 55.1,13.2 L63.9,12.6 L63.9,9.9 C63.9,5.7 61.6,3.6 56.9,3.6 C55,3.6 53.3,4 52,4.8 C50.7,5.6 49.9,6.6 49.5,8 L46,8 C46.3,5.7 47.5,3.9 49.5,2.6 C51.5,1.3 54,0.6 56.9,0.6 C60.2,0.6 62.8,1.4 64.6,3.1 C66.4,4.7 67.3,7 67.3,10 L67.3,29.4 L64,29.4 L64,24.5 L63.7,24.5 C62.8,26.2 61.6,27.5 60,28.4 C58.4,29.1 56.5,29.6 54.4,29.6 Z M76,29.1 L79.4,29.1 L79.4,11.5 C79.4,9.3 80.1,7.4 81.6,6 C83,4.5 84.9,3.8 87.1,3.8 C87.6,3.8 88.2,3.8 88.8,3.9 C89.4,4 89.9,4 90.2,4.1 L90.2,0.7 C89.8,0.6 89.4,0.6 88.9,0.5 C88.4,0.5 88,0.4 87.5,0.4 C85.6,0.4 84,0.9 82.5,1.8 C81.1,2.7 80.1,4 79.6,5.5 L79.3,5.5 L79.3,0.9 L76,0.9 L76,29.1 L76,29.1 Z M118,9.2 C117.6,6.7 116.4,4.7 114.3,3 C112.3,1.3 109.6,0.5 106.4,0.5 C102.5,0.5 99.4,1.8 97.2,4.4 C94.9,7 93.8,10.5 93.8,15 C93.8,19.5 95,23 97.3,25.7 C99.6,28.4 102.7,29.7 106.6,29.7 C109.8,29.7 112.4,28.9 114.4,27.3 C116.4,25.7 117.6,23.6 118.1,21.1 L114.6,21.1 C114.2,22.8 113.2,24.2 111.8,25.1 C110.4,26.1 108.6,26.5 106.5,26.5 C103.7,26.5 101.5,25.5 99.8,23.4 C98.1,21.3 97.3,18.5 97.3,15 C97.3,11.5 98.1,8.7 99.8,6.7 C101.5,4.6 103.7,3.6 106.5,3.6 C108.7,3.6 110.4,4.1 111.9,5.2 C113.4,6.3 114.2,7.6 114.6,9.3 L118,9.3 L118,9.2 Z M136.5,29.6 C132.6,29.6 129.4,28.3 127.1,25.7 C124.8,23.1 123.7,19.5 123.7,15 C123.7,10.5 124.8,6.9 127.1,4.3 C129.4,1.7 132.5,0.4 136.5,0.4 C140.5,0.4 143.6,1.7 145.9,4.3 C148.2,6.9 149.4,10.5 149.4,15 C149.4,19.5 148.2,23 145.9,25.7 C143.6,28.3 140.4,29.6 136.5,29.6 Z M136.5,26.5 C139.4,26.5 141.7,25.5 143.3,23.4 C144.9,21.4 145.8,18.5 145.8,15 C145.8,11.4 145,8.6 143.3,6.6 C141.7,4.6 139.4,3.5 136.5,3.5 C133.6,3.5 131.3,4.5 129.7,6.6 C128.1,8.6 127.2,11.4 127.2,15 C127.2,18.6 128,21.4 129.7,23.4 C131.3,25.4 133.6,26.5 136.5,26.5 Z" id="marco" fill="#B6985A"></path>
                    <path d="M175.7,46.8 C175.5,46.7 175.3,46.7 175.1,46.7 C173.7,46.5 172.4,46.4 171,46.4 C170.1,46.4 169.1,46.3 168.1,46.3 C167.7,46.3 167.3,46.3 166.9,46.3 C166.7,46.3 166.5,46.2 166.4,46 C166.2,45.7 166,45.5 165.8,45.3 C165.7,45.2 165.6,45.2 165.6,45.1 C165.4,44.7 165.1,44.3 164.8,43.9 C163.9,42.5 163.3,41.1 162.8,39.6 C162.4,38.4 162.2,37.1 162.4,35.9 C162.4,35.8 162.4,35.6 162.4,35.5 C162.4,35.4 162.4,35.4 162.3,35.3 C162.2,35.3 162.2,35.3 162.1,35.4 C161.9,35.6 161.8,35.7 161.7,35.9 C161.3,36.7 160.8,37.6 160.5,38.4 C160.4,38.6 160.4,38.7 160.5,38.9 C160.7,39.4 160.9,40 161.2,40.5 C161.6,41.5 162.1,42.4 162.5,43.4 C162.8,44 163,44.6 163.1,45.3 C163.1,45.5 163.2,45.6 163.3,45.8 C163.4,46 163.3,46.2 163.1,46.2 C162.8,46.2 162.4,46.2 162.1,46.2 C161.9,46.2 161.8,46.1 161.7,46 C161.6,45.9 161.5,45.7 161.3,45.6 C161,45.3 160.7,45.1 160.6,44.6 C160.6,44.5 160.5,44.5 160.5,44.4 C160.3,44 160.2,43.6 160.1,43.2 C160,42.5 160,41.8 160,41.2 C160,40.6 160.1,40 160.2,39.4 C160.3,38.5 160.7,37.6 161.1,36.8 C161.3,36.3 161.5,35.9 161.9,35.5 C162.3,35 162.8,34.5 163.3,34.1 C164,33.6 164.7,33.1 165.5,32.8 C166.1,32.5 166.7,32.2 167.3,31.8 C168,31.4 168.7,30.9 169.2,30.3 C169.7,29.7 170,29 170.2,28.2 C170.3,27.7 170.3,27.1 170.3,26.6 C170.3,25.7 170.3,24.8 170.3,24 C170.4,23.3 170.6,23.1 171.2,23.3 C171.7,23.4 172.1,23.5 172.5,23.7 C172.9,23.8 173.2,23.9 173.6,23.9 C173.8,23.9 173.9,23.8 173.8,23.6 C173.8,23.5 173.7,23.4 173.7,23.3 C173.6,23 173.7,22.9 173.9,22.8 C174,22.7 174.1,22.6 174.1,22.5 C174.1,21.9 174.1,21.4 174,20.8 C173.9,20.4 173.9,20.4 173.5,20.4 C172.7,20.4 172,20.5 171.2,20.4 C171,20.4 170.8,20.3 170.6,20.2 C170.3,19.9 170,19.8 169.6,19.8 C169.1,19.8 168.6,19.8 168.1,19.8 C167.9,19.8 167.8,19.7 167.7,19.6 C167.6,19.4 167.5,19.3 167.4,19.1 C167.3,18.8 167.1,18.6 166.8,18.5 C166.8,18.5 166.7,18.5 166.7,18.5 C166.5,18.5 166.3,18.7 166.2,18.9 C166.1,19.1 166.1,19.2 166,19.4 C165.8,20.3 165.7,21.2 165.8,22.2 C165.8,22.8 165.9,23.5 166,24.1 C166.1,24.6 166.3,25.1 166.4,25.6 C166.6,26.2 166.7,26.8 166.5,27.4 C166.3,28.4 165.2,29.1 164.2,28.8 C163.6,28.6 163.1,28.3 162.6,28 C162,27.6 161.4,27.2 160.8,26.8 C159.9,26.2 159.1,25.5 158.3,24.9 C157.7,24.4 157.1,24 156.3,23.7 C155.7,23.5 155,23.5 154.5,23.9 C154.2,24.1 154,24.2 153.8,24.4 C153.1,25.1 152.3,25.8 151.6,26.5 C150.9,27.1 150.2,27.7 149.5,28.1 C148.9,28.5 148.3,28.9 147.8,29.3 C146.9,30 146.2,31 145.5,31.9 C144.9,32.8 144.4,33.8 144,34.8 C143.9,35 143.9,35.2 143.8,35.5 C143.8,35.8 143.9,35.9 144.2,35.8 C144.3,35.8 144.4,35.7 144.5,35.6 C144.8,35.4 145,35.2 145.3,35 C145.7,34.7 146.1,34.7 146.6,34.8 C146.9,34.9 147,35 147,35.4 C146.9,36 146.7,36.5 146.5,37.1 C146.1,38 145.6,38.9 145.2,39.8 C145,40.2 144.9,40.5 144.9,41 C144.9,41.4 145,41.8 145.1,42.2 C145.3,43 145.4,43.8 145.2,44.6 C145.1,45 145.1,45.3 145.1,45.7 C145.1,45.9 145.1,46.2 145,46.4 C145,46.6 144.9,46.7 144.7,46.7 C144.6,46.7 144.5,46.7 144.5,46.7 C143.8,46.8 143,46.8 142.3,46.9 C141.7,47 141.2,47 140.6,47.1 C140.5,47.1 140.3,47.2 140.3,47.3 C140.3,47.3 140.3,47.3 140.3,47.3 C140.3,47.4 140.4,47.5 140.6,47.5 C140.7,47.5 140.9,47.6 141,47.6 C142.3,47.8 143.6,47.8 144.9,47.9 C145.9,48 147,48 148,48 C149.1,48 150.3,48 151.4,48 C152.5,48 153.6,48 154.8,48 C157.7,48 160.6,48 163.4,48 C163.8,48 164.2,48 164.6,48 C166.2,48 167.9,48 169.5,47.9 C170,47.9 170.4,47.9 170.9,47.8 C171.2,47.8 171.4,47.8 171.7,47.8 C172.4,47.7 173.1,47.7 173.8,47.6 C174.3,47.6 174.8,47.5 175.3,47.4 C175.4,47.4 175.6,47.3 175.6,47.2 C176,46.9 175.9,46.9 175.7,46.8 Z M170,20.1 C170,20.1 170.1,20.1 170.1,20.1 C170.1,20.1 170.2,20.1 170.2,20.1 C170.6,20.1 170.7,20.2 170.5,20.6 C170.3,21 170.1,21.1 169.7,21.1 C169.6,21.1 169.5,21 169.5,20.9 C169.5,20.8 169.5,20.8 169.5,20.7 C169.3,20.2 169.6,20.1 170,20.1 Z M158.4,46.1 C158.4,46.2 158.4,46.3 158.2,46.2 C158,46.2 157.7,46.2 157.5,46.2 C156.8,46.2 156.2,46.2 155.5,46.2 C155.4,46.2 155.3,46.2 155.2,46.1 C155.1,45.9 154.9,45.7 154.7,45.6 C154.5,45.5 154.4,45.3 154.3,45.1 C154.2,44.8 153.9,44.5 153.7,44.2 C153.3,43.6 153,42.9 152.6,42.2 C152.3,41.6 152.3,41 152.4,40.3 C152.5,39.6 152.8,39 153.1,38.3 C153.3,37.6 153.6,36.9 153.8,36.2 C153.8,36.1 153.9,36 153.7,36 C153,36 152.3,35.9 151.7,36 C151.5,36 151.4,36.1 151.3,36.2 C151,36.5 150.7,36.8 150.4,37.1 C150.3,37.2 150.3,37.3 150.4,37.3 C150.6,37.8 150.6,38.2 150.5,38.7 C150.5,38.7 150.5,38.8 150.4,38.8 C150.4,39.2 150.2,39.7 150.1,40.1 C150,40.6 150.1,41.1 150.4,41.5 C150.9,42.1 151.3,42.7 151.7,43.4 C151.9,43.8 152,44.2 152,44.7 C152,45 152,45.3 152.1,45.6 C152.2,45.7 152.2,45.8 152.2,46 C152.2,46.2 152.1,46.3 151.9,46.3 C150.9,46.3 149.9,46.4 149,46.4 C148.9,46.4 148.9,46.4 148.8,46.3 C148.6,46 148.3,45.7 148,45.5 C147.9,45.4 147.8,45.3 147.8,45.2 C147.7,44.8 147.5,44.4 147.4,44 C147.2,42.9 147.1,41.9 147.4,40.8 C147.5,40.2 147.9,39.7 148.3,39.3 C148.8,38.8 149.3,38.2 149.6,37.6 C150,36.9 150.4,36.4 151,35.9 C151.2,35.8 151.3,35.7 151.5,35.7 C152.8,35.7 154,35.8 155.3,35.9 C156.1,36 156.9,36 157.7,36 C158,36 158.1,36.1 158.2,36.3 C158.3,36.7 158.4,37.1 158.4,37.5 C158.4,39.3 158.4,41.2 158.4,43 C158.4,43.8 158.4,44.6 158.3,45.5 C158.3,45.5 158.3,45.6 158.3,45.6 C158.5,45.6 158.5,45.9 158.4,46.1 Z" id="Shape" fill="#B5975A"></path>
                </g>
            </g>
        </g>
    </g>
</svg>