<?xml version="1.0" encoding="UTF-8"?>
<svg width="168px" height="48px" viewBox="0 0 168 48" version="1.1" xmlns="http://www.w3.org/2000/svg" xmlns:xlink="http://www.w3.org/1999/xlink">
    <!-- Generator: Sketch 46.2 (44496) - http://www.bohemiancoding.com/sketch -->
    <title>buttons/appStore_tapAndHover</title>
    <desc>Created with Sketch.</desc>
    <defs></defs>
    <g id="design-guideline" stroke="none" stroke-width="1" fill="none" fill-rule="evenodd">
        <g id="buttons" transform="translate(-688.000000, -294.000000)">
            <g id="buttons/appStore_tapAndHover" transform="translate(688.000000, 294.000000)">
                <path d="M168,43.1884422 C168,45.8467337 165.837256,48 163.162218,48 L4.84409127,48 C2.1703144,48 0,45.8467337 0,43.1884422 L0,4.8178392 C0,2.16080402 2.1703144,0 4.84409127,0 L163.160956,0 C165.837256,0 167.998738,2.16080402 167.998738,4.8178392 L168,43.1884422 L168,43.1884422 L168,43.1884422 Z" id="Button" fill="#DBBC83"></path>
                <g id="Group" transform="translate(14.000000, 6.000000)" fill="#FFFFFF">
                    <path d="M22.8278519,17.2053857 C22.7913333,13.1823911 26.151037,11.2251911 26.3046667,11.1340714 C24.4019259,8.38425536 21.4527407,8.00854286 20.4163704,7.97858571 C17.9394074,7.72020536 15.5367407,9.44773393 14.274963,9.44773393 C12.988,9.44773393 11.044963,8.00355 8.95081481,8.04598929 C6.256,8.08718036 3.73496296,9.63371786 2.3522963,12.0352821 C-0.501185185,16.9320268 1.62696296,24.1279821 4.36081481,28.0860696 C5.72837037,30.0245464 7.32637037,32.18895 9.418,32.1128089 C11.4642963,32.0291786 12.2286667,30.8196589 14.6980741,30.8196589 C17.1448148,30.8196589 17.8625926,32.1128089 19.9957778,32.0641286 C22.1919259,32.0291786 23.5745926,30.1169143 24.8942963,28.1609625 C26.4746667,25.9391411 27.1093333,23.7510214 27.1345185,23.6386821 C27.0828889,23.6212071 22.8694074,22.0272375 22.8278519,17.2053857 L22.8278519,17.2053857 Z" id="Shape"></path>
                    <path d="M18.7982222,5.37481071 C19.8988148,4.0105125 20.6518519,2.15441786 20.4428148,0.2708625 C18.8498519,0.3407625 16.8577037,1.36305 15.7105185,2.69739107 C14.6955556,3.87320893 13.7888889,5.80045179 14.0231111,7.61285893 C15.8125185,7.74516964 17.6497778,6.71788929 18.7982222,5.37481071 L18.7982222,5.37481071 Z" id="Shape"></path>
                </g>
                <g id="Group" transform="translate(52.000000, 21.000000)" fill="#FFFFFF">
                    <path d="M14.6640741,16.8558857 L11.8042963,16.8558857 L10.2377778,11.9766161 L4.79274074,11.9766161 L3.30051852,16.8558857 L0.516296296,16.8558857 L5.91096296,0.24465 L9.24296296,0.24465 L14.6640741,16.8558857 L14.6640741,16.8558857 Z M9.76555556,9.92954464 L8.34888889,5.592 C8.19903704,5.14888393 7.91822222,4.10537679 7.50392593,2.46272679 L7.45355556,2.46272679 C7.28859259,3.16921607 7.02288889,4.21272321 6.6577037,5.592 L5.26622222,9.92954464 L9.76555556,9.92954464 L9.76555556,9.92954464 Z" id="Shape"></path>
                    <path d="M28.5373333,10.7196643 C28.5373333,12.75675 27.982,14.3669464 26.8713333,15.5490054 C25.8765185,16.60125 24.6411852,17.1267482 23.1665926,17.1267482 C21.5748889,17.1267482 20.4314815,16.5600589 19.7351111,15.4266804 L19.6847407,15.4266804 L19.6847407,21.7364036 L17,21.7364036 L17,8.82113036 C17,7.5404625 16.966,6.22609286 16.9005185,4.87802143 L19.2616296,4.87802143 L19.4114815,6.77655536 L19.4618519,6.77655536 C20.3571852,5.34610179 21.7159259,4.63212321 23.5393333,4.63212321 C24.9648148,4.63212321 26.1548148,5.190075 27.1068148,6.30722679 C28.0613333,7.42562679 28.5373333,8.89602321 28.5373333,10.7196643 L28.5373333,10.7196643 Z M25.8022222,10.817025 C25.8022222,9.65119286 25.5377778,8.69006786 25.0063704,7.93365 C24.4258519,7.14477857 23.6463704,6.75034286 22.6691852,6.75034286 C22.0068148,6.75034286 21.4048889,6.97002857 20.8671852,7.40315893 C20.3282222,7.84003393 19.9756296,8.41046786 19.8106667,9.11695714 C19.7275556,9.44648571 19.686,9.7161 19.686,9.92829643 L19.686,11.9254393 C19.686,12.7966929 19.9554815,13.5318911 20.4944444,14.1322821 C21.0334074,14.7326732 21.7335556,15.0322446 22.5948889,15.0322446 C23.6060741,15.0322446 24.3931111,14.6452982 24.956,13.8739018 C25.5201481,13.1012571 25.8022222,12.0827143 25.8022222,10.817025 L25.8022222,10.817025 Z" id="Shape"></path>
                    <path d="M42.4357778,10.7196643 C42.4357778,12.75675 41.8804444,14.3669464 40.7685185,15.5490054 C39.774963,16.60125 38.5396296,17.1267482 37.065037,17.1267482 C35.4733333,17.1267482 34.3299259,16.5600589 33.6348148,15.4266804 L33.5844444,15.4266804 L33.5844444,21.7364036 L30.8997037,21.7364036 L30.8997037,8.82113036 C30.8997037,7.5404625 30.8657037,6.22609286 30.8002222,4.87802143 L33.1613333,4.87802143 L33.3111852,6.77655536 L33.3615556,6.77655536 C34.2556296,5.34610179 35.6143704,4.63212321 37.439037,4.63212321 C38.8632593,4.63212321 40.0532593,5.190075 41.0077778,6.30722679 C41.9585185,7.42562679 42.4357778,8.89602321 42.4357778,10.7196643 L42.4357778,10.7196643 Z M39.7006667,10.817025 C39.7006667,9.65119286 39.434963,8.69006786 38.9035556,7.93365 C38.323037,7.14477857 37.5460741,6.75034286 36.5676296,6.75034286 C35.904,6.75034286 35.3033333,6.97002857 34.7643704,7.40315893 C34.2254074,7.84003393 33.8740741,8.41046786 33.7091111,9.11695714 C33.6272593,9.44648571 33.5844444,9.7161 33.5844444,9.92829643 L33.5844444,11.9254393 C33.5844444,12.7966929 33.8539259,13.5318911 34.3903704,14.1322821 C34.9293333,14.731425 35.6294815,15.0322446 36.4933333,15.0322446 C37.5045185,15.0322446 38.2915556,14.6452982 38.8544444,13.8739018 C39.4185926,13.1012571 39.7006667,12.0827143 39.7006667,10.817025 L39.7006667,10.817025 Z" id="Shape"></path>
                    <path d="M57.975037,12.19755 C57.975037,13.6105286 57.4801481,14.7601339 56.4865926,15.6476143 C55.3948148,16.6174768 53.8748889,17.1017839 51.9217778,17.1017839 C50.1185185,17.1017839 48.6728889,16.7572768 47.5785926,16.0670143 L48.2006667,13.8489375 C49.3793333,14.5554268 50.6725926,14.9099196 52.0817037,14.9099196 C53.0928889,14.9099196 53.8799259,14.6827446 54.4453333,14.2308911 C55.0082222,13.7790375 55.289037,13.1724054 55.289037,12.4159875 C55.289037,11.7419518 55.0573333,11.1740143 54.5926667,10.7134232 C54.1305185,10.2528321 53.3585926,9.82469464 52.2806667,9.42901071 C49.3465926,8.3443125 47.8808148,6.75533571 47.8808148,4.665825 C47.8808148,3.30027857 48.3945926,2.18063036 49.4234074,1.30937679 C50.4484444,0.436875 51.816,0.00124821429 53.5260741,0.00124821429 C55.051037,0.00124821429 56.3178519,0.264621429 57.329037,0.790119643 L56.6578519,2.95951607 C55.7134074,2.45024464 54.6455556,2.19560893 53.4505185,2.19560893 C52.5060741,2.19560893 51.7681481,2.42652857 51.2392593,2.88587143 C50.7922222,3.29653393 50.5680741,3.79706786 50.5680741,4.38996964 C50.5680741,5.04653036 50.8237037,5.58950357 51.3374815,6.01639286 C51.7845185,6.41082857 52.5967407,6.83771786 53.7754074,7.29830893 C55.2172593,7.87373571 56.2762963,8.54652321 56.9575556,9.31791964 C57.6362963,10.0868196 57.975037,11.0491929 57.975037,12.19755 L57.975037,12.19755 Z" id="Shape"></path>
                    <path d="M66.8515556,6.87516429 L63.8922963,6.87516429 L63.8922963,12.6905946 C63.8922963,14.1697286 64.4136296,14.9086714 65.4588148,14.9086714 C65.9385926,14.9086714 66.3365185,14.8674804 66.6513333,14.7850982 L66.7256296,16.8059571 C66.1967407,17.0019268 65.5003704,17.1005357 64.6377778,17.1005357 C63.5774815,17.1005357 62.7488889,16.7797446 62.1507407,16.1394107 C61.5551111,15.4978286 61.2554074,14.4218679 61.2554074,12.9102804 L61.2554074,6.87266786 L59.4924444,6.87266786 L59.4924444,4.875525 L61.2554074,4.875525 L61.2554074,2.6824125 L63.8922963,1.89354107 L63.8922963,4.875525 L66.8515556,4.875525 L66.8515556,6.87516429 L66.8515556,6.87516429 Z" id="Shape"></path>
                    <path d="M80.2034815,10.7683446 C80.2034815,12.6094607 79.6720741,14.1210482 78.6117778,15.3031071 C77.4998519,16.5201161 76.024,17.1267482 74.1842222,17.1267482 C72.4111852,17.1267482 70.9995556,16.5438321 69.9468148,15.378 C68.8940741,14.2121679 68.3677037,12.7405232 68.3677037,10.9668107 C68.3677037,9.11071607 68.9091852,7.59039107 69.9959259,6.40833214 C71.0801481,5.225025 72.5434074,4.63337143 74.3831852,4.63337143 C76.1562222,4.63337143 77.582963,5.2162875 78.6596296,6.38336786 C79.6897037,7.51549821 80.2034815,8.97715714 80.2034815,10.7683446 L80.2034815,10.7683446 Z M77.418,10.8544714 C77.418,9.74980179 77.18,8.80240714 76.6977037,8.0122875 C76.1348148,7.05615536 75.3301481,6.5793375 74.2874815,6.5793375 C73.2082963,6.5793375 72.3885185,7.05740357 71.8256296,8.0122875 C71.3433333,8.80365536 71.1053333,9.76602857 71.1053333,10.9044 C71.1053333,12.0090696 71.3433333,12.9564643 71.8256296,13.7453357 C72.4061481,14.7014679 73.2171111,15.1782857 74.2635556,15.1782857 C75.2885926,15.1782857 76.0932593,14.6914821 76.6737778,13.7203714 C77.1686667,12.9152732 77.418,11.9578929 77.418,10.8544714 L77.418,10.8544714 Z" id="Shape"></path>
                    <path d="M88.9301481,7.21842321 C88.6644444,7.16974286 88.3811111,7.14477857 88.0839259,7.14477857 C87.1394815,7.14477857 86.4091111,7.49802321 85.8953333,8.20576071 C85.4482963,8.82986786 85.2241481,9.61873929 85.2241481,10.5711268 L85.2241481,16.8558857 L82.5406667,16.8558857 L82.5658519,8.650125 C82.5658519,7.2696 82.5318519,6.01264821 82.4651111,4.87926964 L84.8035556,4.87926964 L84.9017778,7.17099107 L84.9760741,7.17099107 C85.2594074,6.38336786 85.7064444,5.749275 86.3184444,5.27370536 C86.9165926,4.84556786 87.5625926,4.63212321 88.258963,4.63212321 C88.507037,4.63212321 88.7311852,4.64959821 88.9301481,4.68080357 L88.9301481,7.21842321 L88.9301481,7.21842321 Z" id="Shape"></path>
                    <path d="M100.937185,10.3002643 C100.937185,10.7770821 100.905704,11.1790071 100.838963,11.5072875 L92.7847407,11.5072875 C92.8162222,12.6905946 93.2053333,13.59555 93.9533333,14.2196571 C94.6320741,14.7776089 95.5097778,15.0572089 96.5877037,15.0572089 C97.7802222,15.0572089 98.8682222,14.8687286 99.8466667,14.4905196 L100.267259,16.3378768 C99.1238519,16.8321696 97.7739259,17.0780679 96.2162222,17.0780679 C94.3424444,17.0780679 92.8716296,16.53135 91.8012593,15.4391625 C90.7334074,14.346975 90.1982222,12.8803232 90.1982222,11.0404554 C90.1982222,9.23428929 90.6956296,7.73019107 91.6917037,6.53065714 C92.7343704,5.24998929 94.1434815,4.60965536 95.9165185,4.60965536 C97.6580741,4.60965536 98.9765185,5.24998929 99.8718519,6.53065714 C100.580815,7.54795179 100.937185,8.80615179 100.937185,10.3002643 L100.937185,10.3002643 Z M98.3771111,9.61000179 C98.3947407,8.82113036 98.2197037,8.13960536 97.8557778,7.56417857 C97.3911111,6.8239875 96.6771111,6.45451607 95.7162963,6.45451607 C94.8385926,6.45451607 94.1245926,6.81525 93.5793333,7.53921429 C93.1322963,8.11464107 92.8665926,8.80490357 92.7847407,9.60875357 L98.3771111,9.60875357 L98.3771111,9.61000179 Z" id="Shape"></path>
                </g>
                <g id="Group" transform="translate(54.000000, 7.000000)" fill="#FFFFFF">
                    <path d="M7,3.80797592 C7,5.22498119 6.54019352,6.29164786 5.62188314,7.00797592 C4.77130629,7.668924 3.56252326,8 1.99683662,8 C1.22050614,8 0.556196502,7.96869827 -7.10542736e-15,7.90609481 L-7.10542736e-15,0.163732129 C0.725530331,0.055379985 1.50707108,0 2.35113509,0 C3.84257536,0 4.96669148,0.299774266 5.72478601,0.899322799 C6.57406029,1.57712566 7,2.5462754 7,3.80797592 L7,3.80797592 Z M5.56066245,3.84288939 C5.56066245,2.92430399 5.29754373,2.22001505 4.77130629,1.72881866 C4.24506885,1.23882619 3.47655378,0.993227991 2.4644585,0.993227991 C2.03461109,0.993227991 1.66858951,1.01971407 1.36509118,1.07509406 L1.36509118,6.96102333 C1.53312244,6.98510158 1.84052847,6.99593679 2.28730927,6.99593679 C3.33196874,6.99593679 4.13825828,6.72746426 4.70617789,6.19051919 C5.27409751,5.65357412 5.56066245,4.87103085 5.56066245,3.84288939 L5.56066245,3.84288939 Z" id="Shape"></path>
                    <path d="M14,4.9456986 C14,5.83038438 13.7309942,6.5552166 13.1929825,7.12385601 C12.6289799,7.70835876 11.8817414,8 10.948668,8 C10.0493827,8 9.33333333,7.72056132 8.79922027,7.15924344 C8.26640676,6.59914582 8,5.89261745 8,5.04087858 C8,4.15009152 8.27420403,3.41915802 8.82521118,2.85173887 C9.37621832,2.28431971 10.1169591,2 11.0500325,2 C11.9493177,2 12.6718648,2.27943868 13.2189734,2.8395363 C13.7387914,3.38377059 14,4.08663819 14,4.9456986 L14,4.9456986 Z M12.5873944,4.98718731 C12.5873944,4.45637584 12.4652372,4.00122026 12.2222222,3.62172056 C11.9363223,3.16290421 11.5295647,2.93349603 11.0006498,2.93349603 C10.4535413,2.93349603 10.0376868,3.16290421 9.75178687,3.62172056 C9.50747238,4.00122026 9.38661468,4.46369738 9.38661468,5.01037218 C9.38661468,5.54118365 9.50877193,5.99633923 9.75178687,6.37583893 C10.0467836,6.83465528 10.4574399,7.06406345 10.9876543,7.06406345 C11.5074724,7.06406345 11.9155296,6.83099451 12.2092268,6.36363636 C12.4613385,5.97681513 12.5873944,5.51799878 12.5873944,4.98718731 L12.5873944,4.98718731 Z" id="Shape"></path>
                    <path d="M24,2 L22.056369,8 L20.7913616,8 L19.9862372,5.39456937 C19.7819912,4.74416631 19.615959,4.09758167 19.4868228,3.45608825 L19.4617862,3.45608825 C19.3418741,4.11540093 19.1758419,4.76071277 18.9623719,5.39456937 L18.1071742,8 L16.827672,8 L15,2 L16.4191801,2 L17.1215227,4.85235469 C17.2915081,5.52694103 17.4311859,6.16970725 17.5431918,6.77810776 L17.5682284,6.77810776 C17.6710102,6.27662283 17.8409956,5.63767501 18.0808199,4.86508273 L18.9623719,2.0012728 L20.0877013,2.0012728 L20.9323572,4.80398812 C21.1366032,5.48748409 21.3026354,6.14552397 21.4304539,6.77938057 L21.4686676,6.77938057 C21.5622255,6.16207043 21.7032211,5.50403055 21.8903367,4.80398812 L22.6440703,2.0012728 L24,2.0012728 L24,2 Z" id="Shape"></path>
                    <path d="M31,8 L29.731849,8 L29.731849,4.63411594 C29.731849,3.59692499 29.3494676,3.07832952 28.5822846,3.07832952 C28.2059535,3.07832952 27.9022265,3.22044463 27.6662633,3.50592146 C27.4327202,3.7913983 27.3141336,4.1279867 27.3141336,4.51319343 L27.3141336,7.99875338 L26.0459826,7.99875338 L26.0459826,3.80261791 C26.0459826,3.28651569 26.0302517,2.72678163 26,2.1209225 L27.1144724,2.1209225 L27.1737657,3.03968419 L27.2088577,3.03968419 C27.356486,2.75420736 27.5767183,2.51859547 27.8659245,2.33035529 C28.2095837,2.11094951 28.5943853,2 29.0154889,2 C29.5479187,2 29.9908035,2.17702057 30.3429332,2.53230833 C30.7809777,2.96738001 31,3.61687097 31,4.47953459 L31,8 L31,8 Z" id="Shape"></path>
                    <polygon id="Shape" points="34 9 33 9 33 -8.8817842e-16 34 -8.8817842e-16"></polygon>
                    <path d="M42,4.9456986 C42,5.83038438 41.7309942,6.5552166 41.1929825,7.12385601 C40.6289799,7.70835876 39.8804418,8 38.948668,8 C38.0480832,8 37.3320338,7.72056132 36.7992203,7.15924344 C36.2664068,6.59914582 36,5.89261745 36,5.04087858 C36,4.15009152 36.274204,3.41915802 36.8252112,2.85173887 C37.3762183,2.28431971 38.1169591,2 39.0487329,2 C39.9493177,2 40.6705653,2.27943868 41.2189734,2.8395363 C41.7387914,3.38377059 42,4.08663819 42,4.9456986 L42,4.9456986 Z M40.5860949,4.98718731 C40.5860949,4.45637584 40.4639376,4.00122026 40.2209227,3.62172056 C39.9363223,3.16290421 39.5282651,2.93349603 39.0006498,2.93349603 C38.4522417,2.93349603 38.0363873,3.16290421 37.7517869,3.62172056 C37.5074724,4.00122026 37.3866147,4.46369738 37.3866147,5.01037218 C37.3866147,5.54118365 37.5087719,5.99633923 37.7517869,6.37583893 C38.0467836,6.83465528 38.4574399,7.06406345 38.9876543,7.06406345 C39.5074724,7.06406345 39.91423,6.83099451 40.2079272,6.36363636 C40.4613385,5.97681513 40.5860949,5.51799878 40.5860949,4.98718731 L40.5860949,4.98718731 Z" id="Shape"></path>
                    <path d="M49,7.86943258 L47.7842377,7.86943258 L47.6834625,7.20683344 L47.6459948,7.20683344 C47.2299742,7.73520439 46.6369509,8 45.8669251,8 C45.2919897,8 44.8268734,7.82550336 44.4767442,7.47895058 C44.1589147,7.16412447 44,6.77242221 44,6.30750458 C44,5.60463697 44.3100775,5.06894448 44.9341085,4.69798658 C45.5568475,4.32702868 46.4328165,4.14521049 47.5607235,4.15375229 L47.5607235,4.04636974 C47.5607235,3.2885906 47.1395349,2.91031117 46.2958656,2.91031117 C45.6950904,2.91031117 45.1653747,3.05308115 44.7080103,3.3361806 L44.4328165,2.4966443 C44.998708,2.16595485 45.6976744,2 46.5219638,2 C48.1136951,2 48.9121447,2.79316656 48.9121447,4.37949969 L48.9121447,6.49786455 C48.9121447,7.07260525 48.9418605,7.53020134 49,7.86943258 L49,7.86943258 Z M47.5943152,5.89261745 L47.5943152,5.00549115 C46.1007752,4.98108603 45.3540052,5.36790726 45.3540052,6.16473459 C45.3540052,6.46491763 45.4392765,6.68944478 45.6136951,6.8395363 C45.7881137,6.98962782 46.0103359,7.06406345 46.2751938,7.06406345 C46.5723514,7.06406345 46.8501292,6.97498475 47.1033592,6.79804759 C47.3578811,6.61989018 47.5142119,6.39414277 47.5723514,6.1171446 C47.5865633,6.05491153 47.5943152,5.97925564 47.5943152,5.89261745 L47.5943152,5.89261745 Z" id="Shape"></path>
                    <path d="M56,8.8621134 L54.76,8.8621134 L54.6946667,7.88659794 L54.656,7.88659794 C54.26,8.62886598 53.5853333,9 52.6373333,9 C51.88,9 51.2493333,8.71262887 50.7493333,8.1378866 C50.2493333,7.56314433 50,6.81701031 50,5.9007732 C50,4.91752577 50.2706667,4.12113402 50.8146667,3.5128866 C51.3413333,2.94587629 51.9866667,2.66237113 52.7546667,2.66237113 C53.5986667,2.66237113 54.1893333,2.93685567 54.5253333,3.4871134 L54.552,3.4871134 L54.552,8.8817842e-16 L55.9506667,8.8817842e-16 L55.9506667,7.22551546 C55.9506667,7.81701031 55.9666667,8.3621134 56,8.8621134 L56,8.8621134 Z M54.552,6.30025773 L54.552,5.28737113 C54.552,5.1121134 54.5386667,4.97036082 54.5133333,4.8621134 C54.4346667,4.53737113 54.2653333,4.26417526 54.008,4.04381443 C53.748,3.82345361 53.4346667,3.71262887 53.0733333,3.71262887 C52.552,3.71262887 52.144,3.91237113 51.844,4.31314433 C51.5466667,4.71391753 51.396,5.22551546 51.396,5.85051546 C51.396,6.45103093 51.5386667,6.93814433 51.8253333,7.31314433 C52.128,7.71262887 52.536,7.91237113 53.0466667,7.91237113 C53.5053333,7.91237113 53.872,7.74613402 54.1506667,7.41237113 C54.42,7.10438144 54.552,6.73324742 54.552,6.30025773 L54.552,6.30025773 Z" id="Shape"></path>
                    <path d="M67,4.9456986 C67,5.83038438 66.7309942,6.5552166 66.1929825,7.12385601 C65.6289799,7.70835876 64.8830409,8 63.948668,8 C63.0506823,8 62.3346329,7.72056132 61.7992203,7.15924344 C61.2664068,6.59914582 61,5.89261745 61,5.04087858 C61,4.15009152 61.274204,3.41915802 61.8252112,2.85173887 C62.3762183,2.28431971 63.1169591,2 64.051332,2 C64.9493177,2 65.6731644,2.27943868 66.2189734,2.8395363 C66.7387914,3.38377059 67,4.08663819 67,4.9456986 L67,4.9456986 Z M65.588694,4.98718731 C65.588694,4.45637584 65.4665367,4.00122026 65.2235218,3.62172056 C64.9363223,3.16290421 64.5308642,2.93349603 64.0006498,2.93349603 C63.4548408,2.93349603 63.0389864,3.16290421 62.7517869,3.62172056 C62.5074724,4.00122026 62.3866147,4.46369738 62.3866147,5.01037218 C62.3866147,5.54118365 62.5087719,5.99633923 62.7517869,6.37583893 C63.0467836,6.83465528 63.4574399,7.06406345 63.9876543,7.06406345 C64.5074724,7.06406345 64.9168291,6.83099451 65.2105263,6.36363636 C65.4613385,5.97681513 65.588694,5.51799878 65.588694,4.98718731 L65.588694,4.98718731 Z" id="Shape"></path>
                    <path d="M74,8 L72.7327524,8 L72.7327524,4.63411594 C72.7327524,3.59692499 72.3502784,3.07832952 71.5816993,3.07832952 C71.2052772,3.07832952 70.9014766,3.22044463 70.6666667,3.50592146 C70.4318567,3.7913983 70.3144517,4.1279867 70.3144517,4.51319343 L70.3144517,7.99875338 L69.0447833,7.99875338 L69.0447833,3.80261791 C69.0447833,3.28651569 69.030259,2.72678163 69,2.1209225 L70.1135318,2.1209225 L70.1728395,3.03968419 L70.20794,3.03968419 C70.3568143,2.75420736 70.5771,2.51859547 70.8651658,2.33035529 C71.2101186,2.11094951 71.593803,2 72.0162188,2 C72.5475672,2 72.9905592,2.17702057 73.3427741,2.53230833 C73.7821351,2.96738001 74,3.61687097 74,4.47953459 L74,8 L74,8 Z" id="Shape"></path>
                    <path d="M84,3.29122807 L82.3921978,3.29122807 L82.3921978,5.96959064 C82.3921978,6.6502924 82.6778126,6.99064327 83.2434692,6.99064327 C83.5053988,6.99064327 83.7227447,6.97192982 83.8941135,6.93333333 L83.9317311,7.86315789 C83.6433299,7.95438596 83.2643678,8 82.7976315,8 C82.220829,8 81.7722048,7.85263158 81.4475792,7.55789474 C81.1215604,7.26315789 80.9599443,6.76725146 80.9599443,6.07134503 L80.9599443,3.29122807 L80,3.29122807 L80,2.37309942 L80.9599443,2.37309942 L80.9599443,1.3625731 L82.3908046,1 L82.3908046,2.37192982 L83.9986068,2.37192982 L83.9986068,3.29122807 L84,3.29122807 Z" id="Shape"></path>
                    <path d="M90,9 L88.7188569,9 L88.7188569,5.49265668 C88.7188569,4.38679657 88.3329262,3.83321216 87.5598437,3.83321216 C86.9662921,3.83321216 86.5608207,4.15384615 86.3385442,4.79511415 C86.3006839,4.9299113 86.2787005,5.09480878 86.2787005,5.28849789 L86.2787005,8.99869129 L85,8.99869129 L85,-8.8817842e-16 L86.2787005,-8.8817842e-16 L86.2787005,3.71804566 L86.3031265,3.71804566 C86.7061553,3.04144249 87.28383,2.70379526 88.0324866,2.70379526 C88.5625305,2.70379526 89.000977,2.88963211 89.3490474,3.26261451 C89.7826087,3.72720663 90,4.41820561 90,5.33168533 L90,9 L90,9 Z" id="Shape"></path>
                    <path d="M97,4.73772162 C97,4.96759731 96.9832975,5.16079071 96.9534717,5.31852456 L93.20377,5.31852456 C93.2204724,5.8883228 93.3994273,6.32239658 93.7465999,6.62319136 C94.0639466,6.89219482 94.4731568,7.02669656 94.9742305,7.02669656 C95.5289907,7.02669656 96.0348366,6.93621357 96.490575,6.75402486 L96.6862324,7.64418178 C96.1529468,7.88139393 95.5254116,8 94.7988547,8 C93.9279408,8 93.241947,7.73711025 92.7456454,7.21133075 C92.2469578,6.68555125 92,5.98002853 92,5.09476258 C92,4.2253923 92.2302553,3.50152843 92.694345,2.92439372 C93.1787163,2.30813124 93.8336912,2 94.6604629,2 C95.4693391,2 96.0837509,2.30813124 96.4989263,2.92439372 C96.8341685,3.41349093 97,4.01874873 97,4.73772162 L97,4.73772162 Z M95.8069673,4.40635826 C95.8165116,4.02608518 95.7341923,3.69839006 95.5647817,3.42205013 C95.3476497,3.06623191 95.0171797,2.88771143 94.5697924,2.88771143 C94.1617752,2.88771143 93.8289191,3.06134094 93.5748031,3.4098227 C93.3672155,3.68738537 93.2443331,4.01874873 93.20377,4.40635826 L95.8069673,4.40635826 L95.8069673,4.40635826 Z" id="Shape"></path>
                </g>
            </g>
        </g>
    </g>
</svg>