<?xml version="1.0" encoding="UTF-8"?>
<svg width="162px" height="48px" viewBox="0 0 162 48" version="1.1" xmlns="http://www.w3.org/2000/svg" xmlns:xlink="http://www.w3.org/1999/xlink">
    <!-- Generator: Sketch 46.2 (44496) - http://www.bohemiancoding.com/sketch -->
    <title>buttons/GooglePlay_tapAndHover</title>
    <desc>Created with Sketch.</desc>
    <defs></defs>
    <g id="design-guideline" stroke="none" stroke-width="1" fill="none" fill-rule="evenodd">
        <g id="buttons" transform="translate(-928.000000, -294.000000)">
            <g id="buttons/GooglePlay_tapAndHover" transform="translate(928.000000, 294.000000)">
                <path d="M6.52168858,0.113605536 L154.595211,0.113605536 C158.182256,0.113605536 161.117066,3.04841522 161.117066,6.63529412 L161.117066,41.3153772 C161.117066,44.90209 158.182256,47.8368997 154.595211,47.8368997 L6.52168858,47.8368997 C2.9346436,47.8368997 0,44.90209 0,41.3153772 L0,6.63529412 C0,3.04841522 2.9346436,0.113605536 6.52168858,0.113605536" id="Fill-29" fill="#DBBC83"></path>
                <path d="M58.2002491,26.2770934 L50.6571073,26.2770934 L50.6571073,28.5153218 L56.0068651,28.5153218 C55.7424498,31.6542561 53.1310173,32.9927751 50.6660761,32.9927751 C47.5123599,32.9927751 44.7604152,30.511391 44.7604152,27.0334671 C44.7604152,23.645564 47.3838062,21.0362907 50.6728858,21.0362907 C53.2107405,21.0362907 54.7060484,22.6540069 54.7060484,22.6540069 L56.2734394,21.0309758 C56.2734394,21.0309758 54.2617578,18.7915848 50.5928304,18.7915848 C45.9210519,18.7914187 42.3067682,22.7345606 42.3067682,26.9936055 C42.3067682,31.1669481 45.7064637,35.2363183 50.711917,35.2363183 C55.1141315,35.2361522 58.336609,32.2206228 58.336609,27.7609412 C58.336609,26.8200415 58.200083,26.2764291 58.200083,26.2764291 L58.2002491,26.2770934" id="Fill-30" fill="#FFFFFF"></path>
                <path d="M64.6124844,24.6560554 C61.5170657,24.6560554 59.2989343,27.075654 59.2989343,29.8981869 C59.2989343,32.76191 61.4502976,35.2268512 64.648526,35.2268512 C67.5438062,35.2268512 69.915737,33.0137024 69.915737,29.9596401 C69.915737,26.4587958 67.1566505,24.6560554 64.6124844,24.6560554 L64.6124844,24.6560554 Z M64.643045,26.7320138 C66.1652595,26.7320138 67.6075848,27.9625744 67.6075848,29.9455225 C67.6075848,31.8862837 66.1712388,33.1520554 64.6360692,33.1520554 C62.9492595,33.1520554 61.6183806,31.8010796 61.6183806,29.9302422 C61.6183806,28.0992664 62.9328166,26.7320138 64.643045,26.7320138 L64.643045,26.7320138 Z" id="Fill-31" fill="#FFFFFF"></path>
                <path d="M76.2937578,24.6560554 C73.1985052,24.6560554 70.9802076,27.075654 70.9802076,29.8981869 C70.9802076,32.76191 73.131737,35.2268512 76.3301315,35.2268512 C79.2252457,35.2268512 81.5971765,33.0137024 81.5971765,29.9596401 C81.5971765,26.4587958 78.8382561,24.6560554 76.2937578,24.6560554 L76.2937578,24.6560554 Z M76.3244844,26.7320138 C77.8465329,26.7320138 79.2890242,27.9625744 79.2890242,29.9455225 C79.2890242,31.8862837 77.8526782,33.1520554 76.3173426,33.1520554 C74.630699,33.1520554 73.2999862,31.8010796 73.2999862,29.9302422 C73.2999862,28.0992664 74.61409,26.7320138 76.3244844,26.7320138 L76.3244844,26.7320138 Z" id="Fill-32" fill="#FFFFFF"></path>
                <path d="M87.7355294,24.6615363 C84.8947266,24.6615363 82.6613149,27.1498962 82.6613149,29.942699 C82.6613149,33.1239862 85.2503253,35.233827 87.6865329,35.233827 C89.1931349,35.233827 89.9940208,34.635737 90.585301,33.9494533 L90.585301,34.9916678 C90.585301,36.8151696 89.4781453,37.907045 87.8069481,37.907045 C86.1925536,37.907045 85.382699,36.7067128 85.1013426,36.0254118 L83.0698962,36.8746298 C83.7907266,38.3985052 85.2413564,39.9874879 87.8237232,39.9874879 C90.6485813,39.9874879 92.8014394,38.2083322 92.8014394,34.4767889 L92.8014394,24.9792664 L90.5854671,24.9792664 L90.5854671,25.8746574 C89.9041661,25.1403737 88.9724014,24.6617024 87.7355294,24.6617024 L87.7355294,24.6615363 L87.7355294,24.6615363 Z M87.9411488,26.7335087 C89.3341453,26.7335087 90.7645121,27.9228789 90.7645121,29.953827 C90.7645121,32.0183253 89.3371349,33.1562076 87.9104221,33.1562076 C86.3960138,33.1562076 84.9865744,31.9263114 84.9865744,29.9735917 C84.9865744,27.9444706 86.4503253,26.7335087 87.9411488,26.7335087 L87.9411488,26.7335087 Z" id="Fill-33" fill="#FFFFFF"></path>
                <path d="M103.120277,24.6489135 C100.440415,24.6489135 98.1903945,26.7811765 98.1903945,29.9272526 C98.1903945,33.2563599 100.698353,35.2308374 103.377716,35.2308374 C105.613952,35.2308374 106.986353,34.0075848 107.805509,32.9112249 L105.978519,31.6956125 C105.504332,32.431391 104.711585,33.1507266 103.388844,33.1507266 C101.90317,33.1505606 101.219875,32.3368858 100.796512,31.5487889 L107.883737,28.608 L107.515682,27.7461592 C106.831059,26.058519 105.234104,24.6492457 103.120443,24.6492457 L103.120277,24.6489135 L103.120277,24.6489135 Z M103.212789,26.6816886 C104.178436,26.6816886 104.873356,27.1950727 105.168498,27.8106021 L100.435599,29.7887336 C100.23164,28.2573841 101.682602,26.6816886 103.212623,26.6816886 L103.212789,26.6816886 L103.212789,26.6816886 Z" id="Fill-34" fill="#FFFFFF"></path>
                <polygon id="Fill-35" fill="#FFFFFF" points="94.5786021 34.9169273 96.906519 34.9169273 96.906519 19.3381869 94.5786021 19.3381869"></polygon>
                <polygon id="Fill-36" fill="#FFFFFF" points="125.789896 34.9169273 128.117813 34.9169273 128.117813 19.3381869 125.789896 19.3381869"></polygon>
                <polygon id="Fill-37" fill="#FFFFFF" points="113.445093 34.9169273 115.77301 34.9169273 115.77301 19.3381869 113.445093 19.3381869"></polygon>
                <path d="M115.77301,21.6661038 L115.77301,26.9359723 L119.076208,26.9359723 C120.521024,26.9359723 121.711391,25.7457716 121.711391,24.300955 C121.711391,22.8563045 120.521024,21.6661038 119.076208,21.6661038 L115.77301,21.6661038 L115.77301,21.6661038 Z M113.445093,19.3380208 L119.076208,19.3380208 C121.805896,19.3380208 124.039142,21.5714325 124.039142,24.300955 C124.039142,27.0306436 121.805896,29.2637232 119.076208,29.2637232 L113.445093,29.2637232 L113.445093,19.3380208 L113.445093,19.3380208 Z" id="Fill-38" fill="#FFFFFF"></path>
                <polyline id="Fill-39" fill="#FFFFFF" points="145.305135 39.9874879 152.045564 24.6492457 149.502893 24.6492457 142.76263 39.9874879 145.305135 39.9874879"></polyline>
                <polyline id="Fill-40" fill="#FFFFFF" points="146.057522 36.4766782 140.860069 24.6492457 143.402574 24.6492457 146.98746 32.8065882 146.057522 32.8065882 146.057522 36.4766782"></polyline>
                <path d="M137.645232,30.4137301 C137.347433,31.7092318 136.343087,32.6409965 135.06901,32.9881246 C132.37719,33.72191 131.707516,29.348263 135.707792,29.9496747 C136.394574,30.0325536 136.993827,30.2027958 137.645232,30.4137301 L137.645232,30.4137301 Z M137.645232,34.9169273 L139.973149,34.9169273 L139.973149,29.3140484 C140.337384,23.5352803 133.01099,22.176 130.238782,26.3418685 L132.112111,27.5990035 C133.467571,25.2290657 137.335474,25.7743391 137.589758,28.3140208 C136.427294,28.0062561 135.171488,27.7828651 134.024138,27.8989619 C132.23319,28.0801661 130.699848,29.2177163 130.456194,31.0805813 C130.324484,32.0869204 130.549204,33.3281107 131.251931,34.0843183 C132.347128,35.2622284 134.145218,35.4211765 135.622422,35.0187405 C136.454035,34.7918616 137.108761,34.29791 137.645232,33.6596263 L137.645232,34.9169273 L137.645232,34.9169273 Z" id="Fill-41" fill="#FFFFFF"></path>
                <path d="M50.0103529,9.85943253 L46.5776055,9.85943253 L46.5776055,10.8780623 L49.0123183,10.8780623 C48.8919031,12.3066021 47.7035294,12.915654 46.5817578,12.915654 C45.1465744,12.915654 43.89409,11.7864083 43.89409,10.203737 C43.89409,8.66192388 45.0879446,7.47438062 46.5847474,7.47438062 C47.7399031,7.47438062 48.4203737,8.21065744 48.4203737,8.21065744 L49.133564,7.47205536 C49.133564,7.47205536 48.2180761,6.45292734 46.5483737,6.45292734 C44.4222561,6.45276125 42.7776332,8.24736332 42.7776332,10.1854671 C42.7776332,12.0847059 44.3247612,13.936609 46.602519,13.936609 C48.6060623,13.936609 50.0726367,12.5642076 50.0726367,10.5347543 C50.0726367,10.1065744 50.0103529,9.85910035 50.0103529,9.85910035 L50.0103529,9.85943253" id="Fill-42" fill="#FFFFFF"></path>
                <polygon id="Fill-43" fill="#FFFFFF" points="64.0411349 13.7912803 65.1004567 13.7912803 65.1004567 6.70156401 64.0411349 6.70156401"></polygon>
                <path d="M58.1082353,13.7912803 L59.1677232,13.7912803 L59.1677232,7.76088581 L60.9066851,7.76088581 L60.9066851,6.70156401 L56.3692734,6.70156401 L56.3692734,7.76088581 L58.1082353,7.76088581 L58.1082353,13.7912803" id="Fill-44" fill="#FFFFFF"></path>
                <path d="M51.1894256,13.7912803 L55.2523183,13.7912803 L55.2523183,12.7319585 L52.2489135,12.7319585 L52.2489135,10.7762491 L54.8907405,10.7762491 L54.8907405,9.71676125 L52.2489135,9.71676125 L52.2489135,7.76088581 L55.2523183,7.76088581 L55.2523183,6.70156401 L51.1894256,6.70156401 L51.1894256,13.7912803" id="Fill-45" fill="#FFFFFF"></path>
                <path d="M67.7019239,13.7912803 L68.7612457,13.7912803 L68.7612457,7.76088581 L70.5002076,7.76088581 L70.5002076,6.70156401 L65.9629619,6.70156401 L65.9629619,7.76088581 L67.7019239,7.76088581 L67.7019239,13.7912803" id="Fill-46" fill="#FFFFFF"></path>
                <path d="M76.9969827,6.45292734 C74.8708651,6.45276125 73.2260761,8.24719723 73.2260761,10.1854671 C73.2260761,12.0695917 74.7487889,13.9068789 76.9969827,13.9359446 C79.2451765,13.9068789 80.7678893,12.0695917 80.7678893,10.1854671 C80.7678893,8.24719723 79.1231003,6.45276125 76.9969827,6.45292734 L76.9969827,6.45292734 Z M76.9969827,12.9153218 C75.5757509,12.8978824 74.342699,11.7741176 74.342699,10.203737 C74.342699,8.67438062 75.5172872,7.49397924 76.9969827,7.47487889 C78.4768443,7.49397924 79.6512664,8.67438062 79.6512664,10.203737 C79.6512664,11.7741176 78.4182145,12.8978824 76.9969827,12.9153218 L76.9969827,12.9153218 Z" id="Fill-47" fill="#FFFFFF"></path>
                <polyline id="Fill-48" fill="#FFFFFF" points="81.8260484 13.7912803 82.8855363 13.7912803 82.8855363 8.62704498 86.2880554 13.7912803 87.3457163 13.7912803 87.3457163 6.70156401 86.2862284 6.70156401 86.2862284 11.8631419 82.8855363 6.70156401 81.8260484 6.70156401 81.8260484 13.7912803"></polyline>
                <path d="M13.8507405,15.2958893 L25.8205121,27.2477232 L13.9082076,39.3038616 C13.5605813,39.0834602 13.3742284,38.604955 13.3710727,37.9869343 C13.3650934,36.8023806 13.2702561,17.9995017 13.2631142,16.5887336 C13.2597924,15.912083 13.5059377,15.4991834 13.8507405,15.2958893 L13.8507405,15.2958893 Z M29.7676401,23.2530934 L15.212346,15.3121661 C15.0568858,15.227128 14.8803322,15.175474 14.7044429,15.1523875 L26.3156263,26.7466298 L29.7676401,23.2530934 L29.7676401,23.2530934 Z M30.4148927,30.8395848 L26.8142284,27.2444014 L30.4112388,23.6042076 L35.3647059,26.3061592 C36.5849689,26.9715156 35.9608028,27.8039585 35.3647059,28.1303253 L30.4148927,30.8395848 L30.4148927,30.8395848 Z M14.8949481,39.3076817 C14.9964291,39.269481 15.1023945,39.2208166 15.212346,39.160692 L29.7706298,31.1920277 L26.3191142,27.7456609 L14.8949481,39.3076817 L14.8949481,39.3076817 Z" id="Fill-49" fill="#FFFFFF"></path>
            </g>
        </g>
    </g>
</svg>